#!OML:ASF I:\Actors\actors\Patient Classification 2\Patient 1\Session 1\actor1.ASF
:FULLY-SPECIFIED
:DEGREES
275
root 0.689674 17.9569 8.15954 3.88212 -4.73707 9.10235
lowerback 6.47107 -0.22727 5.76423
upperback 1.38697 0.261863 7.4952
thorax -2.20831 0.106448 4.54397
lowerneck -7.44523 -5.38687 -2.22521
upperneck 33.6504 -11.4268 11.2082
head 13.4271 -3.92326 3.26868
rclavicle 1.59028e-015 7.63333e-014
rhumerus -21.9437 -1.81425 -61.6888
rradius 51.0341
rwrist -5.71748
rhand -13.403 -44.0344
rfingers 7.12502
rthumb 12.7047 -73.6279
lclavicle 1.59028e-015 7.63333e-014
lhumerus -47.4858 -7.80268 103.108
lradius 53.2868
lwrist -5.64122
lhand 13.6885 -25.6591
lfingers 7.12502
lthumb 38.6158 -0.0301346
rfemur -12.7026 -2.91102 -3.6431
rtibia 31.6784
rfoot -21.9936 1.84386
rtoes -11.4248
lfemur -16.8505 7.67786 -29.9681
ltibia 39.1457
lfoot -26.8716 0.383298
ltoes -52.0364
276
root 0.807357 17.9287 8.15518 4.00652 -4.92364 10.0222
lowerback 6.58816 -0.452309 6.24781
upperback 1.46897 -0.00484825 7.27337
thorax -2.178 -0.0288092 4.0602
lowerneck -7.04177 -5.52178 -2.88322
upperneck 35.2209 -11.1133 9.45528
head 13.9034 -4.02839 2.78446
rclavicle 1.35174e-014 -2.8625e-014
rhumerus -23.6277 1.84662 -61.4674
rradius 52.5128
rwrist -2.48115
rhand -11.0107 -43.5117
rfingers 7.12502
rthumb 15.0102 -72.9476
lclavicle 1.35174e-014 -2.8625e-014
lhumerus -48.4271 -7.15845 102.502
lradius 53.786
lwrist -4.97694
lhand 14.3504 -25.8063
lfingers 7.12502
lthumb 39.2399 -0.355456
rfemur -13.1298 -2.51926 -5.10295
rtibia 31.9283
rfoot -22.1056 1.64541
rtoes -11.5839
lfemur -17.1748 8.42436 -31.364
ltibia 39.2175
lfoot -26.5987 -0.405287
ltoes -51.5106
277
root 0.924455 17.8984 8.14779 4.20351 -5.1644 10.8872
lowerback 6.71691 -0.655299 6.88418
upperback 1.50879 -0.225956 6.99566
thorax -2.20582 -0.142556 3.43165
lowerneck -6.70961 -5.59689 -3.33271
upperneck 36.7622 -10.6625 7.56276
head 14.3771 -4.07811 2.20576
rclavicle -1.66979e-014 3.81667e-014
rhumerus -25.2121 5.7291 -61.3972
rradius 53.7233
rwrist 0.111257
rhand -8.27743 -44.1188
rfingers 7.12502
rthumb 17.6419 -73.3385
lclavicle -1.66979e-014 3.81667e-014
lhumerus -49.3153 -6.7194 101.811
lradius 54.1887
lwrist -4.42872
lhand 14.4035 -26.0296
lfingers 7.12502
lthumb 39.2898 -0.593184
rfemur -13.6891 -2.11799 -6.51266
rtibia 32.2153
rfoot -22.2613 1.52083
rtoes -11.1963
lfemur -17.6052 9.23097 -32.7325
ltibia 39.2793
lfoot -26.3274 -1.19624
ltoes -50.9581
278
root 1.0373 17.8672 8.13894 4.4612 -5.34899 11.7427
lowerback 6.78891 -0.890418 7.45005
upperback 1.53083 -0.497021 6.73961
thorax -2.22687 -0.280206 2.87214
lowerneck -6.28527 -5.62061 -3.75931
upperneck 38.1043 -10.0904 5.70275
head 14.7598 -4.09172 1.63385
rclavicle 3.18055e-014 -3.49861e-014
rhumerus -26.7013 10.1627 -61.3979
rradius 54.812
rwrist 1.7225
rhand -5.49668 -44.7278
rfingers 7.12502
rthumb 20.3161 -73.6852
lclavicle 3.18055e-014 -3.49861e-014
lhumerus -50.0556 -6.26646 101.065
lradius 54.4573
lwrist -4.12209
lhand 13.9995 -26.3783
lfingers 7.12502
lthumb 38.9091 -0.832258
rfemur -14.2989 -1.81678 -7.89161
rtibia 32.5203
rfoot -22.432 1.3193
rtoes -11.315
lfemur -18.1226 10.0765 -34.0925
ltibia 39.3342
lfoot -26.0556 -2.05976
ltoes -50.6586
279
root 1.14252 17.8368 8.1293 4.70525 -5.49175 12.5727
lowerback 6.83475 -1.13685 7.91569
upperback 1.60632 -0.796566 6.52577
thorax -2.18359 -0.428927 2.41606
lowerneck -5.87929 -5.59821 -4.29533
upperneck 39.2607 -9.44918 4.03661
head 15.1043 -4.08183 1.15133
rclavicle 1.43125e-014 -4.13472e-014
rhumerus -28.2754 14.6801 -61.5892
rradius 55.8881
rwrist 1.91728
rhand -4.68206 -44.7181
rfingers 7.12502
rthumb 21.0989 -73.5902
lclavicle 1.43125e-014 -4.13472e-014
lhumerus -50.5783 -5.85677 100.312
lradius 54.6881
lwrist -3.89343
lhand 13.6798 -26.6651
lfingers 7.12502
lthumb 38.6076 -1.03379
rfemur -14.88 -1.58098 -9.21135
rtibia 32.842
rfoot -22.5594 1.00591
rtoes -12.3058
lfemur -18.6048 10.8345 -35.3951
ltibia 39.3784
lfoot -25.8248 -2.94394
ltoes -50.3935
280
root 1.24063 17.8075 8.11581 4.89704 -5.66994 13.2853
lowerback 7.01139 -1.37732 8.39722
upperback 1.69826 -1.06977 6.34479
thorax -2.20189 -0.565078 1.9883
lowerneck -5.49163 -5.52946 -4.85782
upperneck 40.3426 -8.76708 2.53761
head 15.457 -4.04722 0.732371
rclavicle 4.77083e-015 5.08889e-014
rhumerus -30.0376 18.8624 -62.0224
rradius 56.9007
rwrist 1.79437
rhand -5.10238 -44.7761
rfingers 7.12502
rthumb 20.695 -73.6927
lclavicle 4.77083e-015 5.08889e-014
lhumerus -51.063 -5.57703 99.5921
lradius 55.0258
lwrist -3.69872
lhand 13.6521 -26.5922
lfingers 7.12502
lthumb 38.5815 -0.953609
rfemur -15.4538 -1.30707 -10.3796
rtibia 33.2039
rfoot -22.6837 0.747212
rtoes -12.9952
lfemur -19.0223 11.6202 -36.5399
ltibia 39.4017
lfoot -25.6329 -3.88786
ltoes -50.0057
281
root 1.32995 17.7786 8.10061 5.00248 -5.87906 13.9567
lowerback 7.27415 -1.61574 8.75375
upperback 1.8844 -1.34583 6.15718
thorax -2.17299 -0.698816 1.62535
lowerneck -5.15907 -5.45184 -5.39639
upperneck 41.2664 -8.14852 1.30937
head 15.7874 -4.01039 0.398865
rclavicle 1.51076e-014 9.54166e-015
rhumerus -31.7581 22.4811 -62.6006
rradius 57.8027
rwrist 2.35051
rhand -5.35553 -44.9027
rfingers 7.12502
rthumb 20.4518 -73.8456
lclavicle 1.51076e-014 9.54166e-015
lhumerus -51.343 -5.39323 98.839
lradius 55.3919
lwrist -3.80348
lhand 13.6262 -26.4067
lfingers 7.12502
lthumb 38.557 -0.761192
rfemur -15.9916 -0.964828 -11.4821
rtibia 33.6242
rfoot -22.8325 0.626189
rtoes -12.8613
lfemur -19.3409 12.5282 -37.5944
ltibia 39.404
lfoot -25.467 -4.98162
ltoes -49.4807
